<svg width="28" height="28" viewBox="0 0 28 28" fill="none" xmlns="http://www.w3.org/2000/svg">
<g clip-path="url(#clip0_11_6)">
<path d="M13.9565 27.9017C21.6613 27.9017 27.9074 21.6557 27.9074 13.9509C27.9074 6.24602 21.6613 0 13.9565 0C6.25163 0 0.00561523 6.24602 0.00561523 13.9509C0.00561523 21.6557 6.25163 27.9017 13.9565 27.9017Z" fill="url(#paint0_linear_11_6)"/>
<path fill-rule="evenodd" clip-rule="evenodd" d="M6.32058 13.8036C10.3875 12.0317 13.0995 10.8636 14.4564 10.2992C18.3307 8.68771 19.1358 8.40778 19.6605 8.39854C19.7759 8.3965 20.0339 8.4251 20.2011 8.56073C20.3422 8.67526 20.3811 8.82996 20.3996 8.93854C20.4182 9.04712 20.4414 9.29447 20.423 9.48774C20.213 11.6937 19.3046 17.047 18.8424 19.5177C18.6468 20.5631 18.2618 20.9137 17.889 20.948C17.0788 21.0225 16.4636 20.4126 15.679 19.8982C14.4511 19.0933 13.7574 18.5923 12.5656 17.8069C11.1882 16.8992 12.0811 16.4003 12.8661 15.585C13.0715 15.3717 16.6411 12.1249 16.7102 11.8304C16.7188 11.7935 16.7268 11.6562 16.6452 11.5837C16.5637 11.5112 16.4433 11.536 16.3564 11.5557C16.2332 11.5837 14.2717 12.8802 10.4718 15.4452C9.91506 15.8275 9.41076 16.0138 8.95892 16.004C8.4608 15.9933 7.50262 15.7224 6.79031 15.4908C5.91664 15.2068 5.22226 15.0567 5.28272 14.5744C5.31422 14.3232 5.66017 14.0662 6.32058 13.8036Z" fill="white"/>
</g>
<defs>
<linearGradient id="paint0_linear_11_6" x1="13.9565" y1="0" x2="13.9565" y2="27.6948" gradientUnits="userSpaceOnUse">
<stop stop-color="#2AABEE"/>
<stop offset="1" stop-color="#229ED9"/>
</linearGradient>
<clipPath id="clip0_11_6">
<rect width="27.9017" height="27.9017" fill="white" transform="translate(0.00561523)"/>
</clipPath>
</defs>
</svg>
