<svg width="28" height="28" viewBox="0 0 28 28" fill="none" xmlns="http://www.w3.org/2000/svg">
<circle cx="13.9509" cy="13.9509" r="13.9509" fill="url(#paint0_linear_12_33)"/>
<path fill-rule="evenodd" clip-rule="evenodd" d="M13.951 4.65039C11.4251 4.65039 11.1084 4.6611 10.1164 4.70636C9.12642 4.75151 8.45032 4.90875 7.85874 5.13868C7.24714 5.37632 6.72847 5.69434 6.21139 6.21139C5.69434 6.72847 5.37632 7.24714 5.13868 7.85874C4.90875 8.45032 4.75151 9.12642 4.70636 10.1164C4.6611 11.1084 4.65039 11.4251 4.65039 13.951C4.65039 16.4769 4.6611 16.7936 4.70636 17.7856C4.75151 18.7755 4.90875 19.4516 5.13868 20.0432C5.37632 20.6548 5.69434 21.1735 6.21139 21.6906C6.72847 22.2076 7.24714 22.5256 7.85874 22.7633C8.45032 22.9932 9.12642 23.1504 10.1164 23.1956C11.1084 23.2408 11.4251 23.2516 13.951 23.2516C16.4769 23.2516 16.7936 23.2408 17.7856 23.1956C18.7755 23.1504 19.4516 22.9932 20.0432 22.7633C20.6548 22.5256 21.1735 22.2076 21.6906 21.6906C22.2076 21.1735 22.5256 20.6548 22.7633 20.0432C22.9932 19.4516 23.1504 18.7755 23.1956 17.7856C23.2408 16.7936 23.2516 16.4769 23.2516 13.951C23.2516 11.4251 23.2408 11.1084 23.1956 10.1164C23.1504 9.12642 22.9932 8.45032 22.7633 7.85874C22.5256 7.24714 22.2076 6.72847 21.6906 6.21139C21.1735 5.69434 20.6548 5.37632 20.0432 5.13868C19.4516 4.90875 18.7755 4.75151 17.7856 4.70636C16.7936 4.6611 16.4769 4.65039 13.951 4.65039ZM13.951 6.32617C16.4343 6.32617 16.7285 6.33566 17.7092 6.3804C18.616 6.42175 19.1085 6.57327 19.4362 6.70063C19.8703 6.86935 20.1801 7.07089 20.5056 7.39637C20.8311 7.72181 21.0326 8.03163 21.2013 8.46576C21.3287 8.79348 21.4802 9.28594 21.5215 10.1927C21.5663 11.1734 21.5758 11.4676 21.5758 13.951C21.5758 16.4343 21.5663 16.7285 21.5215 17.7092C21.4802 18.616 21.3287 19.1085 21.2013 19.4362C21.0326 19.8703 20.8311 20.1801 20.5056 20.5056C20.1801 20.8311 19.8703 21.0326 19.4362 21.2013C19.1085 21.3287 18.616 21.4802 17.7092 21.5215C16.7286 21.5663 16.4345 21.5758 13.951 21.5758C11.4674 21.5758 11.1733 21.5663 10.1927 21.5215C9.28594 21.4802 8.79348 21.3287 8.46576 21.2013C8.03163 21.0326 7.72181 20.8311 7.39637 20.5056C7.07093 20.1801 6.86935 19.8703 6.70063 19.4362C6.57327 19.1085 6.42175 18.616 6.3804 17.7092C6.33566 16.7285 6.32617 16.4343 6.32617 13.951C6.32617 11.4676 6.33566 11.1734 6.3804 10.1927C6.42175 9.28594 6.57327 8.79348 6.70063 8.46576C6.86935 8.03163 7.07089 7.72181 7.39637 7.39637C7.72181 7.07089 8.03163 6.86935 8.46576 6.70063C8.79348 6.57327 9.28594 6.42175 10.1927 6.3804C11.1734 6.33566 11.4676 6.32617 13.951 6.32617V6.32617Z" fill="white"/>
<path fill-rule="evenodd" clip-rule="evenodd" d="M13.951 17.0512C12.2388 17.0512 10.8508 15.6632 10.8508 13.951C10.8508 12.2388 12.2388 10.8508 13.951 10.8508C15.6632 10.8508 17.0512 12.2388 17.0512 13.951C17.0512 15.6632 15.6632 17.0512 13.951 17.0512ZM13.951 9.17505C11.3133 9.17505 9.17505 11.3133 9.17505 13.951C9.17505 16.5887 11.3133 18.727 13.951 18.727C16.5887 18.727 18.727 16.5887 18.727 13.951C18.727 11.3133 16.5887 9.17505 13.951 9.17505V9.17505Z" fill="white"/>
<path fill-rule="evenodd" clip-rule="evenodd" d="M20.0317 8.98621C20.0317 9.6026 19.532 10.1023 18.9156 10.1023C18.2993 10.1023 17.7996 9.6026 17.7996 8.98621C17.7996 8.36981 18.2993 7.87012 18.9156 7.87012C19.532 7.87012 20.0317 8.36981 20.0317 8.98621" fill="white"/>
<defs>
<linearGradient id="paint0_linear_12_33" x1="13.9509" y1="41.8526" x2="41.8526" y2="13.9509" gradientUnits="userSpaceOnUse">
<stop stop-color="#FFD522"/>
<stop offset="0.497382" stop-color="#F1000B"/>
<stop offset="1" stop-color="#B900B3"/>
</linearGradient>
</defs>
</svg>
