<svg width="28" height="28" viewBox="0 0 28 28" fill="none" xmlns="http://www.w3.org/2000/svg">
<g clip-path="url(#clip0_11_3)">
<path d="M27.9044 13.9509C27.9044 6.24601 21.6584 0 13.9536 0C6.2487 0 0.00268555 6.24601 0.00268555 13.9509C0.00268555 20.914 5.10429 26.6857 11.7737 27.7323V17.9835H8.23152V13.9509H11.7737V10.8773C11.7737 7.38088 13.8566 5.44956 17.0432 5.44956C18.5691 5.44956 20.1661 5.72204 20.1661 5.72204V9.15526H18.4069C16.674 9.15526 16.1334 10.2307 16.1334 11.3351V13.9509H20.0026L19.384 17.9835H16.1334V27.7323C22.8028 26.6857 27.9044 20.914 27.9044 13.9509Z" fill="#1877F2"/>
<path d="M19.384 17.9834L20.0025 13.9508H16.1333V11.335C16.1333 10.2317 16.6739 9.15516 18.4069 9.15516H20.166V5.72194C20.166 5.72194 18.5695 5.44946 17.0431 5.44946C13.8565 5.44946 11.7737 7.38079 11.7737 10.8772V13.9508H8.23145V17.9834H11.7737V27.7322C13.2181 27.9581 14.6889 27.9581 16.1333 27.7322V17.9834H19.384Z" fill="white"/>
</g>
<defs>
<clipPath id="clip0_11_3">
<rect width="27.9017" height="27.9017" fill="white" transform="translate(0.00268555)"/>
</clipPath>
</defs>
</svg>
