<svg width="28" height="28" viewBox="0 0 28 28" fill="none" xmlns="http://www.w3.org/2000/svg">
<path d="M13.9509 0.000144958C21.6557 0.000144958 27.9017 6.24577 27.9017 13.9501C27.9017 21.6545 21.6557 27.9001 13.9509 27.9001C6.24602 27.9001 0 21.6545 0 13.9501C0 6.24577 6.24602 0.000144958 13.9509 0.000144958Z" fill="#7F4DA0"/>
<path d="M17.6677 12.182C17.5999 11.6308 17.4305 11.198 17.1296 10.8146C16.7388 10.321 16.2396 10.0254 15.5003 9.85003C15.0186 9.73316 14.824 9.74657 14.6497 9.90572C14.4874 10.0548 14.4558 10.3537 14.5798 10.5473C14.667 10.6878 14.7676 10.7381 15.0475 10.793C15.4201 10.8616 15.6777 10.9506 15.912 11.0845C16.4092 11.3716 16.6408 11.8209 16.6656 12.5482C16.6772 12.8897 16.7067 12.9947 16.8259 13.1159C17.047 13.3373 17.4405 13.2942 17.6074 13.0292C17.6687 12.9294 17.678 12.8859 17.6845 12.654C17.6887 12.5105 17.6826 12.2968 17.6677 12.182Z" fill="white"/>
<path d="M19.6154 12.8036C19.5172 11.1149 18.8566 9.75623 17.6744 8.80029C17.0083 8.26315 16.2032 7.89379 15.3206 7.71417C14.9973 7.64993 14.4021 7.59785 14.3 7.62764C14.2037 7.65522 14.0674 7.75955 14.0066 7.8539C13.9424 7.95621 13.9279 8.18465 13.9827 8.31678C14.0711 8.53767 14.2357 8.61571 14.6965 8.65602C15.4069 8.71817 16.1396 8.96774 16.6932 9.33721C17.3253 9.75788 17.8277 10.3333 18.1528 11.0094C18.4336 11.5903 18.6063 12.4275 18.6015 13.1772C18.5999 13.4483 18.6418 13.6014 18.7508 13.7134C18.9155 13.8855 19.1554 13.9232 19.3671 13.8088C19.6018 13.6854 19.6567 13.4688 19.6154 12.8036Z" fill="white"/>
<path d="M21.7705 19.307C21.7375 19.2105 21.6604 19.0616 21.6053 18.9761C21.2584 18.4523 19.3944 16.9936 18.4637 16.5165C17.9323 16.2436 17.5386 16.1526 17.2467 16.238C16.9329 16.3263 16.7676 16.4724 16.2417 17.1259C16.0298 17.3879 15.8122 17.6333 15.7544 17.6719C15.6112 17.7712 15.3304 17.8512 15.1321 17.8512C14.6723 17.8484 13.8381 17.5506 13.1965 17.159C12.6982 16.8557 12.0594 16.3125 11.5693 15.7748C10.9911 15.1434 10.5974 14.5864 10.2862 13.9577C9.88423 13.1498 9.78236 12.6562 9.95029 12.295C9.9916 12.204 10.0467 12.1076 10.0714 12.0772C10.0962 12.0496 10.3551 11.8373 10.6414 11.6057C11.2031 11.159 11.2939 11.057 11.3986 10.7509C11.5307 10.3621 11.4949 9.96504 11.2912 9.56524C11.1342 9.26192 10.724 8.60016 10.4266 8.17277C10.0329 7.61029 9.0527 6.40808 8.85718 6.24535C8.50476 5.95861 8.05325 5.90895 7.55484 6.102C7.02899 6.30605 6.04326 7.10016 5.62198 7.6544C5.24201 8.15623 5.09613 8.51192 5.07408 8.98067C5.05482 9.36669 5.08785 9.52662 5.2916 10.0202C6.88581 13.8915 9.26469 16.9826 12.533 19.4366C14.2401 20.7188 16.0105 21.6949 17.847 22.3622C18.918 22.751 19.3833 22.7703 19.9313 22.4505C20.1625 22.3126 20.7352 21.7252 21.0546 21.2979C21.5833 20.5864 21.7788 20.2583 21.8338 19.9964C21.8724 19.8171 21.8421 19.5056 21.7705 19.307Z" fill="white"/>
<path d="M21.5981 13.1912C21.5628 12.236 21.402 11.4525 21.0666 10.5789C20.7355 9.71957 20.4004 9.15882 19.7675 8.40039C19.1691 7.68928 18.7044 7.28325 17.9673 6.83128C16.9389 6.20156 15.6874 5.78483 14.2849 5.60957C13.8066 5.54832 13.6984 5.55269 13.5516 5.6506C13.2673 5.83607 13.2711 6.29867 13.5563 6.48136C13.6507 6.53947 13.7345 6.56064 14.1171 6.61072C14.7044 6.68979 15.0821 6.7643 15.5302 6.88656C17.2875 7.36689 18.6388 8.34871 19.5422 9.80617C20.2982 11.021 20.6121 12.2359 20.5675 13.7875C20.552 14.3121 20.5633 14.4044 20.6435 14.5304C20.797 14.7653 21.202 14.8118 21.4098 14.6169C21.539 14.4981 21.5634 14.4089 21.5889 13.9599C21.6011 13.7257 21.6037 13.38 21.5981 13.1912Z" fill="white"/>
</svg>
